<svg xmlns="http://www.w3.org/2000/svg" xmlns:svg="http://www.w3.org/2000/svg" xmlns:xlink="http://www.w3.org/1999/xlink" id="svg2" width="892.144" height="445.241" version="1.1" viewBox="0 0 892.144 445.241"><title id="title10211">OpenCV: Parameters of Elliptic Arc</title><defs id="defs4"><marker id="marker10499" orient="auto" overflow="visible" refX="0" refY="0"><path id="path10501" fill="#fff" fill-rule="evenodd" stroke="#000" stroke-opacity="1" stroke-width="1pt" d="M 5.77,0.0 L -2.88,5.0 L -2.88,-5.0 L 5.77,0.0 z" transform="scale(0.8) translate(-6,0)"/></marker><marker id="marker10255" orient="auto" overflow="visible" refX="0" refY="0"><path id="path10257" fill="#000" fill-opacity="1" fill-rule="evenodd" stroke="#000" stroke-opacity="1" stroke-width="1pt" d="M -2.5,-1.0 C -2.5,1.7600000 -4.7400000,4.0 -7.5,4.0 C -10.260000,4.0 -12.5,1.7600000 -12.5,-1.0 C -12.5,-3.7600000 -10.260000,-6.0 -7.5,-6.0 C -4.7400000,-6.0 -2.5,-3.7600000 -2.5,-1.0 z" transform="scale(0.8) translate(7.4, 1)"/></marker><marker id="marker8296" orient="auto" overflow="visible" refX="0" refY="0"><path id="path8298" fill="#000" fill-opacity="1" fill-rule="evenodd" stroke="#000" stroke-opacity="1" stroke-width="1pt" d="M -2.5,-1.0 C -2.5,1.7600000 -4.7400000,4.0 -7.5,4.0 C -10.260000,4.0 -12.5,1.7600000 -12.5,-1.0 C -12.5,-3.7600000 -10.260000,-6.0 -7.5,-6.0 C -4.7400000,-6.0 -2.5,-3.7600000 -2.5,-1.0 z" transform="scale(0.8) translate(7.4, 1)"/></marker><marker id="DotL" orient="auto" overflow="visible" refX="0" refY="0"><path id="path4998" fill="#000" fill-opacity="1" fill-rule="evenodd" stroke="#000" stroke-opacity="1" stroke-width="1pt" d="M -2.5,-1.0 C -2.5,1.7600000 -4.7400000,4.0 -7.5,4.0 C -10.260000,4.0 -12.5,1.7600000 -12.5,-1.0 C -12.5,-3.7600000 -10.260000,-6.0 -7.5,-6.0 C -4.7400000,-6.0 -2.5,-3.7600000 -2.5,-1.0 z" transform="scale(0.8) translate(7.4, 1)"/></marker><marker id="DotM" orient="auto" overflow="visible" refX="0" refY="0"><path id="path5001" fill="olive" fill-opacity="1" fill-rule="evenodd" stroke="olive" stroke-opacity="1" stroke-width="1pt" d="M -2.5,-1.0 C -2.5,1.7600000 -4.7400000,4.0 -7.5,4.0 C -10.260000,4.0 -12.5,1.7600000 -12.5,-1.0 C -12.5,-3.7600000 -10.260000,-6.0 -7.5,-6.0 C -4.7400000,-6.0 -2.5,-3.7600000 -2.5,-1.0 z" transform="scale(0.4) translate(7.4, 1)"/></marker><marker id="EmptyTriangleOutL" orient="auto" overflow="visible" refX="0" refY="0"><path id="path5097" fill="#fff" fill-rule="evenodd" stroke="#000" stroke-opacity="1" stroke-width="1pt" d="M 5.77,0.0 L -2.88,5.0 L -2.88,-5.0 L 5.77,0.0 z" transform="scale(0.8) translate(-6,0)"/></marker><marker id="Tail" orient="auto" overflow="visible" refX="0" refY="0"><g id="g4973" fill="olive" fill-opacity="1" stroke="olive" stroke-opacity="1" transform="scale(-1.2)"><path id="path4975" fill="olive" fill-opacity="1" fill-rule="evenodd" stroke="olive" stroke-linecap="round" stroke-opacity="1" stroke-width=".8" d="M -3.8048674,-3.9585227 L 0.54352094,0"/><path id="path4977" fill="olive" fill-opacity="1" fill-rule="evenodd" stroke="olive" stroke-linecap="round" stroke-opacity="1" stroke-width=".8" d="M -1.2866832,-3.9585227 L 3.0617053,0"/><path id="path4979" fill="olive" fill-opacity="1" fill-rule="evenodd" stroke="olive" stroke-linecap="round" stroke-opacity="1" stroke-width=".8" d="M 1.3053582,-3.9585227 L 5.6537466,0"/><path id="path4981" fill="olive" fill-opacity="1" fill-rule="evenodd" stroke="olive" stroke-linecap="round" stroke-opacity="1" stroke-width=".8" d="M -3.8048674,4.1775838 L 0.54352094,0.21974226"/><path id="path4983" fill="olive" fill-opacity="1" fill-rule="evenodd" stroke="olive" stroke-linecap="round" stroke-opacity="1" stroke-width=".8" d="M -1.2866832,4.1775838 L 3.0617053,0.21974226"/><path id="path4985" fill="olive" fill-opacity="1" fill-rule="evenodd" stroke="olive" stroke-linecap="round" stroke-opacity="1" stroke-width=".8" d="M 1.3053582,4.1775838 L 5.6537466,0.21974226"/></g></marker><marker id="marker5864" orient="auto" overflow="visible" refX="0" refY="0"><path id="path5866" fill="#000" fill-opacity="1" fill-rule="evenodd" stroke="#000" stroke-linejoin="round" stroke-opacity="1" stroke-width=".625" d="M 8.7185878,4.0337352 L -2.2072895,0.016013256 L 8.7185884,-4.0017078 C 6.9730900,-1.6296469 6.9831476,1.6157441 8.7185878,4.0337352 z" transform="scale(0.6) translate(0,0)"/></marker><marker id="Arrow2Mstart" orient="auto" overflow="visible" refX="0" refY="0"><path id="path4820" fill="#000" fill-opacity="1" fill-rule="evenodd" stroke="#000" stroke-linejoin="round" stroke-opacity="1" stroke-width=".625" d="M 8.7185878,4.0337352 L -2.2072895,0.016013256 L 8.7185884,-4.0017078 C 6.9730900,-1.6296469 6.9831476,1.6157441 8.7185878,4.0337352 z" transform="scale(0.6) translate(0,0)"/></marker><marker id="marker5258" orient="auto" overflow="visible" refX="0" refY="0"><path id="path5260" fill="#000" fill-opacity="1" fill-rule="evenodd" stroke="#000" stroke-linejoin="round" stroke-opacity="1" stroke-width=".625" d="M 8.7185878,4.0337352 L -2.2072895,0.016013256 L 8.7185884,-4.0017078 C 6.9730900,-1.6296469 6.9831476,1.6157441 8.7185878,4.0337352 z" transform="scale(0.6) rotate(180) translate(0,0)"/></marker><marker id="Arrow2Mend" orient="auto" overflow="visible" refX="0" refY="0"><path id="path4823" fill="#000" fill-opacity="1" fill-rule="evenodd" stroke="#000" stroke-linejoin="round" stroke-opacity="1" stroke-width=".625" d="M 8.7185878,4.0337352 L -2.2072895,0.016013256 L 8.7185884,-4.0017078 C 6.9730900,-1.6296469 6.9831476,1.6157441 8.7185878,4.0337352 z" transform="scale(0.6) rotate(180) translate(0,0)"/></marker><marker id="marker7736" orient="auto" overflow="visible" refX="0" refY="0"><path id="path7738" fill="#0ff" fill-opacity="1" fill-rule="evenodd" stroke="#0ff" stroke-opacity="1" stroke-width="1pt" d="M 0,0 5,-5 -12.5,0 5,5 0,0 Z" transform="matrix(-0.8,0,0,-0.8,-10,0)"/></marker><marker id="marker7588" orient="auto" overflow="visible" refX="0" refY="0"><path id="path7590" fill="none" fill-opacity=".75" fill-rule="evenodd" stroke="#0ff" stroke-opacity="1" stroke-width="1pt" d="M 0,5.65 0,-5.65" transform="scale(0.8,0.8)"/></marker><marker id="marker7330" orient="auto" overflow="visible" refX="0" refY="0"><path id="path7332" fill="#f0f" fill-opacity="1" fill-rule="evenodd" stroke="#f0f" stroke-opacity="1" stroke-width="1pt" d="M 0,0 5,-5 -12.5,0 5,5 0,0 Z" transform="matrix(-0.8,0,0,-0.8,-10,0)"/></marker><marker id="marker7194" orient="auto" overflow="visible" refX="0" refY="0"><path id="path7196" fill="none" fill-opacity=".75" fill-rule="evenodd" stroke="#f0f" stroke-opacity="1" stroke-width="1pt" d="M 0,5.65 0,-5.65" transform="scale(0.8,0.8)"/></marker><marker id="marker6280" orient="auto" overflow="visible" refX="0" refY="0"><path id="path6282" fill="olive" fill-opacity="1" fill-rule="evenodd" stroke="olive" stroke-opacity="1" stroke-width="1pt" d="M 0,0 5,-5 -12.5,0 5,5 0,0 Z" transform="matrix(-0.8,0,0,-0.8,-10,0)"/></marker><marker id="marker6198" orient="auto" overflow="visible" refX="0" refY="0"><path id="path6200" fill="none" fill-opacity=".75" fill-rule="evenodd" stroke="olive" stroke-opacity="1" stroke-width="1pt" d="M 0,5.65 0,-5.65" transform="scale(0.8,0.8)"/></marker><marker id="marker5802" orient="auto" overflow="visible" refX="0" refY="0"><path id="path5804" fill="#0ff" fill-opacity="1" fill-rule="evenodd" stroke="#0ff" stroke-opacity="1" stroke-width="1pt" d="M 0,0 5,-5 -12.5,0 5,5 0,0 Z" transform="matrix(-0.8,0,0,-0.8,-10,0)"/></marker><marker id="marker5732" orient="auto" overflow="visible" refX="0" refY="0"><path id="path5734" fill="none" fill-opacity=".75" fill-rule="evenodd" stroke="#0ff" stroke-opacity="1" stroke-width="1pt" d="M 0,5.65 0,-5.65" transform="scale(0.8,0.8)"/></marker><marker id="marker5348" orient="auto" overflow="visible" refX="0" refY="0"><path id="path5350" fill="#f0f" fill-opacity="1" fill-rule="evenodd" stroke="#f0f" stroke-opacity="1" stroke-width="1pt" d="M 0,0 5,-5 -12.5,0 5,5 0,0 Z" transform="matrix(-0.8,0,0,-0.8,-10,0)"/></marker><marker id="marker5182" orient="auto" overflow="visible" refX="0" refY="0"><path id="path5184" fill="olive" fill-opacity="1" fill-rule="evenodd" stroke="olive" stroke-opacity="1" stroke-width="1pt" d="M -5,-5 -5,5 5,5 5,-5 -5,-5 Z" transform="scale(0.8,0.8)"/></marker><marker id="SquareL" orient="auto" overflow="visible" refX="0" refY="0"><path id="path4253" fill="olive" fill-opacity="1" fill-rule="evenodd" stroke="olive" stroke-opacity="1" stroke-width="1pt" d="M -5,-5 -5,5 5,5 5,-5 -5,-5 Z" transform="scale(0.8,0.8)"/></marker><marker id="marker4670" orient="auto" overflow="visible" refX="0" refY="0"><path id="path4672" fill="none" fill-opacity=".75" fill-rule="evenodd" stroke="#f0f" stroke-opacity="1" stroke-width="1pt" d="M 0,5.65 0,-5.65" transform="scale(0.8,0.8)"/></marker><marker id="marker4465" orient="auto" overflow="visible" refX="0" refY="0"><path id="path4467" fill="#000" fill-opacity="1" fill-rule="evenodd" stroke="#000" stroke-opacity="1" stroke-width="1pt" d="M 0,0 5,-5 -12.5,0 5,5 0,0 Z" transform="matrix(-0.8,0,0,-0.8,-10,0)"/></marker><marker id="Arrow1Lend" orient="auto" overflow="visible" refX="0" refY="0"><path id="path4186" fill="#000" fill-opacity="1" fill-rule="evenodd" stroke="#000" stroke-opacity="1" stroke-width="1pt" d="M 0,0 5,-5 -12.5,0 5,5 0,0 Z" transform="matrix(-0.8,0,0,-0.8,-10,0)"/></marker><marker id="Arrow1Lend-7" orient="auto" overflow="visible" refX="0" refY="0"><path id="path4186-9" fill="#000" fill-opacity="1" fill-rule="evenodd" stroke="#000" stroke-opacity="1" stroke-width="1pt" d="M 0,0 5,-5 -12.5,0 5,5 0,0 Z" transform="matrix(-0.8,0,0,-0.8,-10,0)"/></marker><marker id="marker4465-9" orient="auto" overflow="visible" refX="0" refY="0"><path id="path4467-5" fill="#000" fill-opacity="1" fill-rule="evenodd" stroke="#000" stroke-opacity="1" stroke-width="1pt" d="M 0,0 5,-5 -12.5,0 5,5 0,0 Z" transform="matrix(-0.8,0,0,-0.8,-10,0)"/></marker><marker id="SquareL-3" orient="auto" overflow="visible" refX="0" refY="0"><path id="path4253-0" fill="olive" fill-opacity="1" fill-rule="evenodd" stroke="olive" stroke-opacity="1" stroke-width="1pt" d="M -5,-5 -5,5 5,5 5,-5 -5,-5 Z" transform="scale(0.8,0.8)"/></marker><marker id="marker5182-2" orient="auto" overflow="visible" refX="0" refY="0"><path id="path5184-3" fill="olive" fill-opacity="1" fill-rule="evenodd" stroke="olive" stroke-opacity="1" stroke-width="1pt" d="M -5,-5 -5,5 5,5 5,-5 -5,-5 Z" transform="scale(0.8,0.8)"/></marker><marker id="marker5732-0" orient="auto" overflow="visible" refX="0" refY="0"><path id="path5734-4" fill="none" fill-opacity=".75" fill-rule="evenodd" stroke="olive" stroke-opacity="1" stroke-width="1pt" d="M 0,5.65 0,-5.65" transform="scale(0.8,0.8)"/></marker><marker id="marker5802-7" orient="auto" overflow="visible" refX="0" refY="0"><path id="path5804-1" fill="olive" fill-opacity="1" fill-rule="evenodd" stroke="olive" stroke-opacity="1" stroke-width="1pt" d="M 0,0 5,-5 -12.5,0 5,5 0,0 Z" transform="matrix(-0.8,0,0,-0.8,-10,0)"/></marker><marker id="marker6198-4" orient="auto" overflow="visible" refX="0" refY="0"><path id="path6200-9" fill="none" fill-opacity=".75" fill-rule="evenodd" stroke="olive" stroke-opacity="1" stroke-width="1pt" d="M 0,5.65 0,-5.65" transform="scale(0.8,0.8)"/></marker><marker id="marker6280-2" orient="auto" overflow="visible" refX="0" refY="0"><path id="path6282-9" fill="olive" fill-opacity="1" fill-rule="evenodd" stroke="olive" stroke-opacity="1" stroke-width="1pt" d="M 0,0 5,-5 -12.5,0 5,5 0,0 Z" transform="matrix(-0.8,0,0,-0.8,-10,0)"/></marker><path id="path4495-6" fill="none" fill-rule="evenodd" stroke="#0f0" stroke-dasharray="none" stroke-linecap="butt" stroke-linejoin="miter" stroke-miterlimit="4" stroke-opacity="1" stroke-width="1" d="M -1.5544254,814.86219 301.55446,989.86218"/><path id="path6190-6" fill="none" fill-opacity=".969" fill-rule="nonzero" stroke="olive" stroke-dasharray="none" stroke-dashoffset="0" stroke-miterlimit="4" stroke-opacity="1" stroke-width="1" marker-end="url(#marker6280-2)" marker-start="url(#marker6198-4)" d="m 319.5,902.36218 a 169.5,169.5 0 0 1 -22.70869,84.75" opacity="1"/><path id="path5724-8" fill="none" fill-opacity=".969" fill-rule="nonzero" stroke="olive" stroke-dasharray="none" stroke-dashoffset="0" stroke-miterlimit="4" stroke-opacity="1" stroke-width="1.06" marker-end="url(#marker5802-7)" marker-start="url(#marker5732-0)" d="m 760.55476,706.46857 a 179.46986,179.46986 0 0 1 -41.98797,115.361" opacity="1" transform="matrix(0.8660254,0.5,-0.5,0.8660254,0,0)"/><marker id="EmptyTriangleOutL-9" orient="auto" overflow="visible" refX="0" refY="0"><path id="path5097-0" fill="#fff" fill-rule="evenodd" stroke="#000" stroke-opacity="1" stroke-width="1pt" d="m 5.77,0 -8.65,5 0,-10 8.65,5 z" transform="matrix(0.8,0,0,0.8,-4.8,0)"/></marker><marker id="EmptyTriangleOutL-0" orient="auto" overflow="visible" refX="0" refY="0"><path id="path5097-4" fill="#fff" fill-rule="evenodd" stroke="olive" stroke-opacity="1" stroke-width="1pt" d="m 5.77,0 -8.65,5 0,-10 8.65,5 z" transform="matrix(0.8,0,0,0.8,-4.8,0)"/></marker><marker id="EmptyTriangleOutL-0-6" orient="auto" overflow="visible" refX="0" refY="0"><path id="path5097-4-5" fill="#fff" fill-rule="evenodd" stroke="olive" stroke-opacity="1" stroke-width="1pt" d="m 5.77,0 -8.65,5 0,-10 8.65,5 z" transform="matrix(0.8,0,0,0.8,-4.8,0)"/></marker><marker id="marker10255-3" orient="auto" overflow="visible" refX="0" refY="0"><path id="path10257-9" fill="#000" fill-opacity="1" fill-rule="evenodd" stroke="#000" stroke-opacity="1" stroke-width="1pt" d="m -2.5,-1 c 0,2.76 -2.24,5 -5,5 -2.76,0 -5,-2.24 -5,-5 0,-2.76 2.24,-5 5,-5 2.76,0 5,2.24 5,5 z" transform="matrix(0.8,0,0,0.8,5.92,0.8)"/></marker><marker id="marker10499-9" orient="auto" overflow="visible" refX="0" refY="0"><path id="path10501-6" fill="#fff" fill-rule="evenodd" stroke="#000" stroke-opacity="1" stroke-width="1pt" d="m 5.77,0 -8.65,5 0,-10 8.65,5 z" transform="matrix(0.8,0,0,0.8,-4.8,0)"/></marker></defs><metadata id="metadata7"/><g id="layer1" transform="translate(40.833559,-707.15463)"><ellipse id="path4151" cx="581.085" cy="706.469" fill="#e6e6e6" fill-opacity=".969" fill-rule="nonzero" stroke="#000" stroke-dasharray="1 1" stroke-dashoffset="0" stroke-miterlimit="4" stroke-opacity="1" stroke-width="1" opacity="1" rx="149.475" ry="149.475" transform="matrix(0.8660254,0.5,-0.5,0.8660254,0,0)"/><ellipse id="path4153" cx="581.085" cy="706.469" fill="none" fill-opacity=".969" fill-rule="nonzero" stroke="red" stroke-dasharray="none" stroke-dashoffset="0" stroke-miterlimit="4" stroke-opacity="1" stroke-width="1" opacity="1" rx="149.53" ry="74.53" transform="matrix(0.8660254,0.5,-0.5,0.8660254,0,0)"/><path id="path4175" fill="none" fill-rule="evenodd" stroke="#000" stroke-dasharray="none" stroke-linecap="butt" stroke-linejoin="miter" stroke-miterlimit="4" stroke-opacity="1" stroke-width="1" marker-end="url(#Arrow1Lend)" d="m 135.80359,902.36221 238.2293,0"/><path id="path4177" fill="none" fill-rule="evenodd" stroke="#000" stroke-dasharray="none" stroke-linecap="butt" stroke-linejoin="miter" stroke-miterlimit="4" stroke-opacity="1" stroke-width="1" marker-end="url(#marker4465)" d="m 150.00002,888.19052 0,216.79618"/><path id="path4493" fill="none" fill-rule="evenodd" stroke="#0f0" stroke-dasharray="none" stroke-linecap="butt" stroke-linejoin="miter" stroke-miterlimit="4" stroke-opacity="1" stroke-width="1" d="M 62.500014,1053.9166 237.50002,750.80774"/><path id="path4495" fill="none" fill-rule="evenodd" stroke="#0f0" stroke-dasharray="none" stroke-linecap="butt" stroke-linejoin="miter" stroke-miterlimit="4" stroke-opacity="1" stroke-width="1" d="M -1.5544254,814.86219 301.55446,989.86218"/><path id="path4493-1" fill="none" fill-rule="evenodd" stroke="olive" stroke-dasharray="3 3" stroke-dashoffset="0" stroke-linecap="butt" stroke-linejoin="miter" stroke-miterlimit="4" stroke-opacity="1" stroke-width="1" marker-end="url(#SquareL)" d="M 5.5030681,959.76375 63.902407,857.80226"/><path id="path4493-1-5" fill="none" fill-rule="evenodd" stroke="olive" stroke-dasharray="3 3" stroke-dashoffset="0" stroke-linecap="butt" stroke-linejoin="miter" stroke-miterlimit="4" stroke-opacity="1" stroke-width="1" marker-end="url(#marker5182)" d="m 197.74252,1048.4226 49.16186,-85.32573"/><path id="path4828" fill="none" fill-rule="evenodd" stroke="#0ff" stroke-dasharray="3 3" stroke-dashoffset="0" stroke-linecap="butt" stroke-linejoin="miter" stroke-miterlimit="4" stroke-opacity="1" stroke-width="1" d="m 149.99991,902.36233 61.68111,169.46737"/><path id="path4153-8" fill="none" fill-opacity=".969" fill-rule="nonzero" stroke="#00f" stroke-dasharray="none" stroke-dashoffset="0" stroke-linecap="round" stroke-miterlimit="4" stroke-opacity="1" stroke-width="3" d="m 695.63135,754.37556 a 149.52977,74.52977 0 0 1 -210.66233,9.18631" opacity="1" transform="matrix(0.8660254,0.5,-0.5,0.8660254,0,0)"/><path id="path5094" fill="none" fill-opacity=".969" fill-rule="nonzero" stroke="#f0f" stroke-dasharray="none" stroke-dashoffset="0" stroke-miterlimit="4" stroke-opacity="1" stroke-width="1.06" marker-end="url(#marker5348)" marker-start="url(#marker4670)" d="M 743.05489,706.46863 A 161.96986,161.96988 0 0 1 649.53645,853.26319 161.96986,161.96988 0 0 1 476.9728,830.54476" opacity="1" transform="matrix(0.8660254,0.5,-0.5,0.8660254,0,0)"/><path id="path5724" fill="none" fill-opacity=".969" fill-rule="nonzero" stroke="#0ff" stroke-dasharray="none" stroke-dashoffset="0" stroke-miterlimit="4" stroke-opacity="1" stroke-width="1.06" marker-end="url(#marker5802)" marker-start="url(#marker5732)" d="m 760.55476,706.46857 a 179.46986,179.46986 0 0 1 -41.98797,115.361" opacity="1" transform="matrix(0.8660254,0.5,-0.5,0.8660254,0,0)"/><path id="path6190" fill="none" fill-opacity=".969" fill-rule="nonzero" stroke="olive" stroke-dasharray="none" stroke-dashoffset="0" stroke-miterlimit="4" stroke-opacity="1" stroke-width="1" marker-end="url(#marker6280)" marker-start="url(#marker6198)" d="m 319.5,902.36218 a 169.5,169.5 0 0 1 -22.70869,84.75" opacity="1"/><text id="text6446" fill="#000" fill-opacity="1" stroke="none" stroke-linecap="butt" stroke-linejoin="miter" stroke-opacity="1" stroke-width="1" font-family="sans-serif" font-size="10" font-stretch="normal" font-style="normal" font-variant="normal" font-weight="normal" letter-spacing="0" text-anchor="start" word-spacing="0" writing-mode="lr-tb" xml:space="preserve" style="line-height:136.00000143%;-inkscape-font-specification:'sans-serif, Normal';text-align:start"><textPath id="textPath6450" font-family="sans-serif" font-size="10" font-stretch="normal" font-style="normal" font-variant="normal" font-weight="normal" text-anchor="start" writing-mode="lr-tb" xlink:href="#path4495" style="line-height:136.00000143%;-inkscape-font-specification:'sans-serif, Normal';text-align:start">FIRST AXIS</textPath></text><text id="text6453" x="374.033" y="902.362" fill="#000" fill-opacity="1" stroke="none" stroke-linecap="butt" stroke-linejoin="miter" stroke-opacity="1" stroke-width="1" font-family="sans-serif" font-size="10" font-stretch="normal" font-style="normal" font-variant="normal" font-weight="normal" letter-spacing="0" text-anchor="start" word-spacing="0" writing-mode="lr" xml:space="preserve" style="line-height:125%;-inkscape-font-specification:'sans-serif, Normal';text-align:start"><tspan id="tspan6455" x="374.033" y="902.362">X</tspan></text><text id="text6457" x="152.568" y="1112.639" fill="#000" fill-opacity="1" stroke="none" stroke-linecap="butt" stroke-linejoin="miter" stroke-opacity="1" stroke-width="1" font-family="sans-serif" font-size="10" font-stretch="normal" font-style="normal" font-variant="normal" font-weight="normal" letter-spacing="0" text-anchor="start" word-spacing="0" writing-mode="lr" xml:space="preserve" style="line-height:125%;-inkscape-font-specification:'sans-serif, Normal';text-align:start"><tspan id="tspan6459" x="152.568" y="1112.639">Y</tspan></text><text id="text6492" fill="#000" fill-opacity="1" stroke="none" stroke-linecap="butt" stroke-linejoin="miter" stroke-opacity="1" stroke-width="1" font-family="sans-serif" font-size="10" font-stretch="normal" font-style="normal" font-variant="normal" font-weight="normal" letter-spacing="0" text-anchor="start" word-spacing="0" writing-mode="lr" xml:space="preserve" style="line-height:136%;-inkscape-font-specification:'sans-serif, Normal';text-align:start"><textPath id="textPath6512" xlink:href="#path5724"><tspan font-style="normal" style="-inkscape-font-specification:'sans-serif, Normal';text-align:start;line-height:136%" id="tspan6494" dy="0 0 0 0 -2" font-family="sans-serif" font-size="10" font-stretch="normal" font-variant="normal" font-weight="normal" text-anchor="start" writing-mode="lr">START ANGLE</tspan></textPath></text><text id="text6496" fill="#000" fill-opacity="1" stroke="none" stroke-linecap="butt" stroke-linejoin="miter" stroke-opacity="1" stroke-width="1" font-family="sans-serif" font-size="10" font-stretch="normal" font-style="normal" font-variant="normal" font-weight="normal" letter-spacing="0" text-anchor="start" word-spacing="0" writing-mode="lr" xml:space="preserve" style="line-height:136%;-inkscape-font-specification:'sans-serif, Normal';text-align:start"><textPath id="textPath6527" xlink:href="#path5094"><tspan font-style="normal" style="-inkscape-font-specification:'sans-serif, Normal';text-align:start;line-height:136%" id="tspan6498" dy="0 0 0 0 0 0 0 0 0 0 0 0 0 0 0 0 0 0 0 0 0 0 0 0 0 0 0 0 0 0 0 0 0 0 0 0 0 0 0 0 0 0 0 0 0 0 0 0 0 0 0 0 0 0 0 0 0 0 0 0 0 0 0 0 0 0 0 -2" font-family="sans-serif" font-size="10" font-stretch="normal" font-variant="normal" font-weight="normal" text-anchor="start" writing-mode="lr">END ANGLE</tspan></textPath></text><ellipse id="path4151-7" cx="970.363" cy="481.719" fill="#e6e6e6" fill-opacity=".969" fill-rule="nonzero" stroke="#000" stroke-dasharray="1 1" stroke-dashoffset="0" stroke-miterlimit="4" stroke-opacity="1" stroke-width="1" opacity="1" rx="149.475" ry="149.475" transform="matrix(0.8660254,0.5,-0.5,0.8660254,0,0)"/><ellipse id="path4153-4" cx="970.363" cy="481.719" fill="none" fill-opacity=".969" fill-rule="nonzero" stroke="red" stroke-dasharray="none" stroke-dashoffset="0" stroke-miterlimit="4" stroke-opacity="1" stroke-width="1" opacity="1" rx="149.5" ry="199.5" transform="matrix(0.8660254,0.5,-0.5,0.8660254,0,0)"/><path id="path4175-8" fill="none" fill-rule="evenodd" stroke="#000" stroke-dasharray="none" stroke-linecap="butt" stroke-linejoin="miter" stroke-miterlimit="4" stroke-opacity="1" stroke-width="1" marker-end="url(#Arrow1Lend-7)" d="m 585.30357,902.36221 222.87861,0"/><path id="path4177-3" fill="none" fill-rule="evenodd" stroke="#000" stroke-dasharray="none" stroke-linecap="butt" stroke-linejoin="miter" stroke-miterlimit="4" stroke-opacity="1" stroke-width="1" marker-end="url(#marker4465-9)" d="m 599.5,888.19052 0,238.01018"/><path id="path4493-6" fill="none" fill-rule="evenodd" stroke="#0f0" stroke-dasharray="none" stroke-linecap="butt" stroke-linejoin="miter" stroke-miterlimit="4" stroke-opacity="1" stroke-width="1" d="M 493.8871,1085.2486 709.21229,712.40469"/><path id="path6601" fill="none" fill-rule="evenodd" stroke="#0f0" stroke-dasharray="none" stroke-linecap="butt" stroke-linejoin="miter" stroke-miterlimit="4" stroke-opacity="1" stroke-width="1" d="M 447.94555,814.86219 751.05444,989.86218"/><path id="path4493-1-4" fill="none" fill-rule="evenodd" stroke="olive" stroke-dasharray="3 3" stroke-dashoffset="0" stroke-linecap="butt" stroke-linejoin="miter" stroke-miterlimit="4" stroke-opacity="1" stroke-width="1" marker-end="url(#SquareL-3)" d="M 432.66651,996.2203 512.28503,858.86961"/><path id="path4493-1-5-7" fill="none" fill-rule="evenodd" stroke="olive" stroke-dasharray="3 3" stroke-dashoffset="0" stroke-linecap="butt" stroke-linejoin="miter" stroke-miterlimit="4" stroke-opacity="1" stroke-width="1" marker-end="url(#marker5182-2)" d="M 622.90827,1087.6338 695.04781,964.38683"/><path id="path4826-6" fill="none" fill-rule="evenodd" stroke="#f0f" stroke-dasharray="3 3" stroke-dashoffset="0" stroke-linecap="butt" stroke-linejoin="miter" stroke-miterlimit="4" stroke-opacity="1" stroke-width="1" d="M 598.72808,902.72337 428.83625,964.0896"/><path id="path4828-5" fill="none" fill-rule="evenodd" stroke="#0ff" stroke-dasharray="3 3" stroke-dashoffset="0" stroke-linecap="butt" stroke-linejoin="miter" stroke-miterlimit="4" stroke-opacity="1" stroke-width="1" d="M 599.49989,902.36233 661.181,1071.8297"/><path id="path6608" fill="none" fill-opacity=".969" fill-rule="nonzero" stroke="#f0f" stroke-dasharray="none" stroke-dashoffset="0" stroke-miterlimit="4" stroke-opacity="1" stroke-width="1.06" marker-end="url(#marker7330)" marker-start="url(#marker7194)" d="M 1132.3333,481.71863 A 161.96986,161.96988 0 0 1 1038.8148,628.51319 161.96986,161.96988 0 0 1 866.25119,605.79476" opacity="1" transform="matrix(0.8660254,0.5,-0.5,0.8660254,0,0)"/><path id="path6610" fill="none" fill-opacity=".969" fill-rule="nonzero" stroke="#0ff" stroke-dasharray="none" stroke-dashoffset="0" stroke-miterlimit="4" stroke-opacity="1" stroke-width="1.06" marker-end="url(#marker7736)" marker-start="url(#marker7588)" d="m 1149.8331,481.71857 a 179.46986,179.46986 0 0 1 -41.9879,115.361" opacity="1" transform="matrix(0.8660254,0.5,-0.5,0.8660254,0,0)"/><path id="path6612" fill="none" fill-opacity=".969" fill-rule="nonzero" stroke="olive" stroke-dasharray="none" stroke-dashoffset="0" stroke-miterlimit="4" stroke-opacity="1" stroke-width="1" marker-end="url(#marker6280-2)" marker-start="url(#marker6198-4)" d="m 769,902.36218 a 169.5,169.5 0 0 1 -22.70869,84.75" opacity="1"/><text id="text6446-6" fill="#000" fill-opacity="1" stroke="none" stroke-linecap="butt" stroke-linejoin="miter" stroke-opacity="1" stroke-width="1" font-family="sans-serif" font-size="10" font-stretch="normal" font-style="normal" font-variant="normal" font-weight="normal" letter-spacing="0" text-anchor="start" transform="translate(449.49998,0)" word-spacing="0" writing-mode="lr-tb" xml:space="preserve" style="line-height:125%;-inkscape-font-specification:'sans-serif, Normal';text-align:start"><textPath id="textPath6450-7" xlink:href="#path4495-6"><tspan id="tspan6448-1" dy="-2" font-family="sans-serif" font-size="10" font-stretch="normal" font-style="normal" font-variant="normal" font-weight="normal" text-anchor="start" writing-mode="lr-tb" style="line-height:125%;-inkscape-font-specification:'sans-serif, Normal';text-align:start">FIRST AXIS</tspan></textPath></text><text id="text6453-8" x="806.114" y="900.267" fill="#000" fill-opacity="1" stroke="none" stroke-linecap="butt" stroke-linejoin="miter" stroke-opacity="1" stroke-width="1" font-family="sans-serif" font-size="10" font-stretch="normal" font-style="normal" font-variant="normal" font-weight="normal" letter-spacing="0" text-anchor="start" word-spacing="0" writing-mode="lr" xml:space="preserve" style="line-height:125%;-inkscape-font-specification:'sans-serif, Normal';text-align:start"><tspan id="tspan6455-2" x="806.114" y="900.267">X</tspan></text><text id="text6457-3" x="602.144" y="1132.396" fill="#000" fill-opacity="1" stroke="none" stroke-linecap="butt" stroke-linejoin="miter" stroke-opacity="1" stroke-width="1" font-family="sans-serif" font-size="10" font-stretch="normal" font-style="normal" font-variant="normal" font-weight="normal" letter-spacing="0" text-anchor="start" word-spacing="0" writing-mode="lr" xml:space="preserve" style="line-height:125%;-inkscape-font-specification:'sans-serif, Normal';text-align:start"><tspan id="tspan6459-8" x="602.144" y="1132.396">Y</tspan></text><text id="text6492-3" fill="#000" fill-opacity="1" stroke="none" stroke-linecap="butt" stroke-linejoin="miter" stroke-opacity="1" stroke-width="1" font-family="sans-serif" font-size="10" font-stretch="normal" font-style="normal" font-variant="normal" font-weight="normal" letter-spacing="0" text-anchor="start" transform="translate(449.49998,0)" word-spacing="0" writing-mode="lr" xml:space="preserve" style="line-height:163%;-inkscape-font-specification:'sans-serif, Normal';text-align:start"><textPath id="textPath6512-5" xlink:href="#path5724-8"><tspan font-style="normal" style="-inkscape-font-specification:'sans-serif, Normal';text-align:start;line-height:163%" id="tspan6494-6" dy="0 0 0 0 -2" font-family="sans-serif" font-size="10" font-stretch="normal" font-variant="normal" font-weight="normal" text-anchor="start" writing-mode="lr">START ANGLE</tspan></textPath></text><text id="text6496-6" fill="#000" fill-opacity="1" stroke="none" stroke-linecap="butt" stroke-linejoin="miter" stroke-opacity="1" stroke-width="1" font-family="sans-serif" font-size="10" font-stretch="normal" font-style="normal" font-variant="normal" font-weight="normal" letter-spacing="0" text-anchor="start" word-spacing="0" writing-mode="lr" xml:space="preserve" style="line-height:136%;-inkscape-font-specification:'sans-serif, Normal';text-align:start"><textPath id="textPath7500" xlink:href="#path6608"><tspan font-style="normal" style="-inkscape-font-specification:'sans-serif, Normal';text-align:start;line-height:136%" id="tspan6498-1" dy="0 0 0 0 0 0 0 0 0 0 0 0 0 0 0 0 0 0 0 0 0 0 0 0 0 0 0 0 0 0 0 0 0 0 0 0 0 0 0 0 0 0 0 0 0 0 0 0 0 0 0 0 0 0 0 0 0 0 0 0 0 0 0 0 0 0 0 -2" font-family="sans-serif" font-size="10" font-stretch="normal" font-variant="normal" font-weight="normal" text-anchor="start" writing-mode="lr">END ANGLE</tspan></textPath></text><path id="path4153-4-1" fill="none" fill-opacity=".969" fill-rule="nonzero" stroke="#00f" stroke-dasharray="none" stroke-dashoffset="0" stroke-linecap="round" stroke-miterlimit="4" stroke-opacity="1" stroke-width="3" d="M 1083.8894,611.52454 A 149.5,199.5 0 0 1 874.26654,634.54447" opacity="1" transform="matrix(0.8660254,0.5,-0.5,0.8660254,0,0)"/><path id="path4826" fill="none" fill-rule="evenodd" stroke="#f0f" stroke-dasharray="3 3" stroke-dashoffset="0" stroke-linecap="butt" stroke-linejoin="miter" stroke-miterlimit="4" stroke-opacity="1" stroke-width="1" d="M 149.2281,902.72337 -20.663726,964.0896"/><path id="path4151-1" fill="none" fill-opacity=".969" fill-rule="nonzero" stroke="#000" stroke-dasharray="none" stroke-dashoffset="0" stroke-miterlimit="4" stroke-opacity="1" stroke-width="2" d="M 695.58961,802.5496 A 149.47528,149.47527 0 0 1 485.00404,820.97345" opacity="1" transform="matrix(0.8660254,0.5,-0.5,0.8660254,0,0)"/><path id="path4151-1-3" fill="none" fill-opacity=".969" fill-rule="nonzero" stroke="#000" stroke-dasharray="none" stroke-dashoffset="0" stroke-miterlimit="4" stroke-opacity="1" stroke-width="2" d="M 1084.868,577.7996 A 149.47528,149.47527 0 0 1 874.28243,596.22345" opacity="1" transform="matrix(0.8660254,0.5,-0.5,0.8660254,0,0)"/><text id="text7956" fill="#000" fill-opacity="1" stroke="none" stroke-linecap="butt" stroke-linejoin="miter" stroke-opacity="1" stroke-width="1" font-family="sans-serif" font-size="10" font-stretch="normal" font-style="normal" font-variant="normal" font-weight="normal" letter-spacing="0" text-anchor="start" word-spacing="0" writing-mode="lr" xml:space="preserve" style="line-height:136%;-inkscape-font-specification:'sans-serif, Normal';text-align:start"><textPath id="textPath8909" dy="-2" xlink:href="#path7960">AXES.WIDTH</textPath></text><path id="path7960" fill="none" fill-rule="evenodd" stroke="#000" stroke-linecap="butt" stroke-linejoin="miter" stroke-opacity="1" stroke-width="1" marker-end="url(#marker5258)" marker-start="url(#Arrow2Mstart)" d="M 42.572298,794.94012 168.8221,867.80578"/><path id="path4493-7" fill="none" fill-rule="evenodd" stroke="#000" stroke-dasharray="none" stroke-linecap="butt" stroke-linejoin="miter" stroke-miterlimit="4" stroke-opacity="1" stroke-width="1" marker-end="url(#Arrow2Mend)" marker-start="url(#marker5864)" d="m 198.18927,845.65244 -36.13322,63.04388"/><text id="text7074" fill="#000" fill-opacity="1" stroke="none" stroke-linecap="butt" stroke-linejoin="miter" stroke-opacity="1" stroke-width="1" font-family="sans-serif" font-size="10" font-stretch="normal" font-style="normal" font-variant="normal" font-weight="normal" letter-spacing="0" text-anchor="start" word-spacing="0" writing-mode="lr" xml:space="preserve" style="line-height:136%;-inkscape-font-specification:'sans-serif, Normal';text-align:start"><textPath id="textPath7090" dy="-2" xlink:href="#path4493-7">AXES.EIGHT</textPath></text><text id="text10033" x="18.344" y="746.416" fill="#000" fill-opacity="1" stroke="none" stroke-linecap="butt" stroke-linejoin="miter" stroke-opacity="1" stroke-width="1" font-family="sans-serif" font-size="10" font-stretch="normal" font-style="normal" font-variant="normal" font-weight="normal" letter-spacing="0" text-anchor="start" word-spacing="0" writing-mode="lr-tb" xml:space="preserve" style="line-height:125%;-inkscape-font-specification:'sans-serif, Normal';text-align:start"><tspan id="tspan10035" x="18.344" y="746.416">AXES.WIDTH &gt; AXES.HEIGHT</tspan></text><text id="text10033-4" x="365.594" y="746.62" fill="#000" fill-opacity="1" stroke="none" stroke-linecap="butt" stroke-linejoin="miter" stroke-opacity="1" stroke-width="1" font-family="sans-serif" font-size="10" font-stretch="normal" font-style="normal" font-variant="normal" font-weight="normal" letter-spacing="0" text-anchor="start" word-spacing="0" writing-mode="lr-tb" xml:space="preserve" style="line-height:125%;-inkscape-font-specification:'sans-serif, Normal';text-align:start"><tspan id="tspan10035-2" x="365.594" y="746.62">AXES.WIDTH &gt; AXES.HEIGHT</tspan></text><text id="text6461" fill="#000" fill-opacity="1" stroke="none" stroke-linecap="butt" stroke-linejoin="miter" stroke-opacity="1" stroke-width="1" font-family="sans-serif" font-size="10" font-stretch="normal" font-style="normal" font-variant="normal" font-weight="normal" letter-spacing="0" text-anchor="start" word-spacing="0" writing-mode="lr" xml:space="preserve" style="line-height:136%;-inkscape-font-specification:'sans-serif, Normal';text-align:start"><textPath id="textPath6477" dy="0 0 0 0 0 0 0 0 -2" xlink:href="#path6190">ANGLE</textPath></text><text id="text6461-4" fill="#000" fill-opacity="1" stroke="none" stroke-linecap="butt" stroke-linejoin="miter" stroke-opacity="1" stroke-width="1" font-family="sans-serif" font-size="10" font-stretch="normal" font-style="normal" font-variant="normal" font-weight="normal" letter-spacing="0" text-anchor="start" transform="translate(449.49998,0)" word-spacing="0" writing-mode="lr" xml:space="preserve" style="line-height:163%;-inkscape-font-specification:'sans-serif, Normal';text-align:start"><textPath id="textPath6477-3" dy="0 0 0 0 0 0 0 0 -2" xlink:href="#path6190-6">ANGLE</textPath></text><path id="path4493-1-9" fill="none" fill-rule="evenodd" stroke="#000" stroke-dasharray="none" stroke-dashoffset="0" stroke-linecap="butt" stroke-linejoin="miter" stroke-miterlimit="4" stroke-opacity="1" stroke-width="1" marker-end="url(#EmptyTriangleOutL)" marker-start="url(#DotL)" d="M 9.3696449,953.01295 37.857294,903.27534"/><path id="path4493-1-9-6" fill="none" fill-rule="evenodd" stroke="#000" stroke-dasharray="none" stroke-dashoffset="0" stroke-linecap="butt" stroke-linejoin="miter" stroke-miterlimit="4" stroke-opacity="1" stroke-width="1" marker-end="url(#EmptyTriangleOutL-9)" marker-start="url(#marker8296)" d="m 200.92867,1042.8927 23.9216,-41.7656"/><path id="path10247" fill="none" fill-rule="evenodd" stroke="#000" stroke-linecap="butt" stroke-linejoin="miter" stroke-opacity="1" stroke-width="1" marker-end="url(#marker10499)" marker-start="url(#marker10255)" d="m 458.42826,951.77509 -18.99218,32.76452"/><path id="path10247-9" fill="none" fill-rule="evenodd" stroke="#000" stroke-linecap="butt" stroke-linejoin="miter" stroke-opacity="1" stroke-width="1" marker-end="url(#marker10499-9)" marker-start="url(#marker10255-3)" d="m 650.05357,1041.2573 -18.99218,32.7645"/></g></svg>